<svg xmlns="http://www.w3.org/2000/svg" width="825" height="383" viewBox="0 0 825 383" fill="none"><g clip-path="url(#clip0_19105_1390)"><path d="M631.365 368.605L631.423 368.763C631.5 372.561 630.156 375.734 627.404 378.28C624.654 380.836 621.015 382.105 616.491 382.115C611.905 382.106 608.162 380.494 605.267 377.259C602.38 374.018 600.935 369.909 600.935 364.941V357.755C600.935 352.783 602.38 348.672 605.267 345.425C608.162 342.179 611.905 340.558 616.491 340.558C621.091 340.558 624.746 341.772 627.462 344.206C630.173 346.639 631.496 349.856 631.423 353.872L631.365 354.041H626.089C626.089 351.209 625.252 348.978 623.588 347.329C621.909 345.681 619.549 344.857 616.491 344.857C613.425 344.857 610.98 346.091 609.16 348.551C607.343 351.002 606.429 354.063 606.429 357.697V364.938C606.429 368.621 607.343 371.688 609.16 374.152C610.98 376.604 613.427 377.835 616.491 377.835C619.549 377.835 621.909 377.022 623.588 375.382C625.252 373.745 626.089 371.481 626.089 368.605H631.365ZM663.458 381.526H657.964V338.26H663.458V381.526ZM690.33 366.248C690.33 361.806 691.538 358.153 693.959 355.274C696.378 352.396 699.66 350.959 703.805 350.959C707.993 350.959 711.297 352.396 713.725 355.264C716.153 358.122 717.362 361.789 717.362 366.248V366.853C717.362 371.331 716.153 374.995 713.736 377.835C711.316 380.683 708.031 382.108 703.862 382.115C699.702 382.108 696.395 380.683 693.975 377.826C691.55 374.967 690.33 371.311 690.33 366.853V366.248ZM695.825 366.853C695.825 370.034 696.502 372.657 697.855 374.73C699.194 376.8 701.202 377.835 703.862 377.835C706.489 377.835 708.467 376.803 709.832 374.73C711.193 372.657 711.867 370.034 711.867 366.853V366.248C711.867 363.104 711.182 360.479 709.823 358.399C708.448 356.305 706.449 355.264 703.805 355.264C701.183 355.264 699.194 356.305 697.855 358.399C696.502 360.479 695.825 363.104 695.825 366.248V366.853ZM762.954 377.087C762.003 378.696 760.785 379.938 759.299 380.808C757.815 381.679 756.09 382.108 754.136 382.115C750.843 382.108 748.281 381.062 746.434 378.97C744.599 376.888 743.674 373.63 743.674 369.208V351.515H749.166V369.268C749.166 372.468 749.643 374.665 750.598 375.868C751.539 377.068 753.026 377.673 755.034 377.673C756.985 377.673 758.597 377.276 759.872 376.489C761.146 375.704 762.108 374.599 762.758 373.151V351.515H768.25V381.529H763.317L762.954 377.087ZM794.704 367.079C794.704 362.25 795.743 358.36 797.817 355.395C799.893 352.443 802.798 350.959 806.531 350.959C808.302 350.959 809.862 351.286 811.232 351.933C812.607 352.576 813.769 353.523 814.738 354.764V338.26H820.233V381.526H816.011L815.185 377.731C814.194 379.172 812.978 380.258 811.529 380.997C810.075 381.736 808.394 382.105 806.473 382.115C802.798 382.106 799.912 380.778 797.827 378.127C795.754 375.48 794.704 371.985 794.704 367.658V367.079ZM800.199 367.658C800.199 370.69 800.826 373.12 802.075 374.937C803.311 376.765 805.254 377.673 807.874 377.673C809.513 377.673 810.882 377.306 812.004 376.566C813.12 375.819 814.023 374.785 814.738 373.45V359.449C814.023 358.207 813.108 357.225 811.987 356.494C810.863 355.762 809.513 355.395 807.93 355.395C805.284 355.395 803.341 356.475 802.083 358.641C800.826 360.81 800.199 363.614 800.199 367.077V367.658Z" fill="#1D284D"></path><path d="M187.967 378.716H275.109L191.047 279.821L158.528 344.086L187.967 378.716ZM108.786 183.04L87.1424 157.579H0L76.2702 247.305L108.786 183.04Z" fill="#1D284D"></path><path d="M118.965 378.716H31.8203L183.236 79.4726H107.621L310.59 0.000154767L118.965 378.716Z" fill="#1D284D"></path><path d="M382.574 233.815H383.234L397.931 199.741H438.648L404.932 256.848L439.821 315.267H399.105L383.673 280.134H383.013L367.549 315.267H326.864L361.754 256.848L327.929 199.741H368.389L382.574 233.815Z" fill="#1D284D"></path><path d="M581.77 251.528C581.77 270.662 575.654 286.442 563.447 298.867C551.24 311.294 535.3 317.49 515.62 317.526C495.788 317.487 479.737 311.294 467.421 298.867C455.106 286.442 448.948 270.662 448.948 251.528V223.541C448.948 204.481 455.071 188.701 467.348 176.274C479.625 163.81 495.643 157.579 515.399 157.579C535.007 157.579 550.987 163.81 563.302 176.274C575.615 188.701 581.77 204.481 581.77 223.541V251.528ZM545.561 223.355C545.561 212.243 542.96 203.131 537.681 196.027C532.44 188.881 525 185.348 515.399 185.348C505.613 185.348 498.098 188.883 492.895 195.953C487.726 203.022 485.123 212.169 485.123 223.355V251.528C485.123 262.787 487.763 271.936 493.002 279.078C498.281 286.185 505.83 289.757 515.615 289.757C525.147 289.757 532.513 286.185 537.755 279.078C542.96 271.936 545.561 262.787 545.561 251.528V223.355ZM635.098 199.742L636.492 215.959C640.304 210.202 644.993 205.72 650.565 202.476C656.174 199.232 662.405 197.593 669.259 197.593C680.658 197.593 689.527 201.455 695.939 209.144C702.353 216.835 705.543 229.042 705.543 245.772V315.267H669.259V245.659C669.259 238.334 668.086 233.123 665.701 230.026C663.357 226.927 659.911 225.361 655.404 225.361C651.557 225.361 648.074 226.054 644.993 227.402C641.916 228.749 639.354 230.681 637.261 233.158V315.267H601.089V199.742H635.098ZM776.866 317.526C759.235 317.487 745.457 312.205 735.45 301.601C725.481 290.996 720.46 277.584 720.46 261.366V257.285C720.46 239.646 725.189 225.254 734.607 214.175C744.028 203.059 757.623 197.518 775.437 197.593C791.121 197.593 803.289 202.258 811.905 211.586C820.515 220.916 824.84 233.707 824.84 249.924V268.837H758.286L758.065 269.456C758.613 275.507 760.886 280.39 764.807 284.142C768.766 287.899 774.411 289.757 781.776 289.757C788.742 289.757 794.496 289.173 799.113 288.044C803.729 286.914 809.008 285.092 814.983 282.576L823.67 304.588C818.647 308.23 811.941 311.294 803.475 313.771C795.044 316.252 786.137 317.49 776.866 317.526ZM775.437 225.361C769.646 225.361 765.393 227.183 762.608 230.864C759.858 234.544 758.283 239.502 757.841 245.772L758.065 246.279H789.399V243.51C789.399 237.532 788.339 233.014 786.248 229.952C784.12 226.892 780.53 225.361 775.437 225.361Z" fill="#1D284D"></path></g><defs><clipPath id="clip0_19105_1390"><rect width="824.84" height="382.115" fill="white"></rect></clipPath></defs></svg>